<?xml version="1.0" standalone="no"?>
<!DOCTYPE svg PUBLIC "-//W3C//DTD SVG 20010904//EN"
 "http://www.w3.org/TR/2001/REC-SVG-20010904/DTD/svg10.dtd">
<svg version="1.0" xmlns="http://www.w3.org/2000/svg"
 width="136.000000pt" height="136.000000pt" viewBox="0 0 136.000000 136.000000"
 preserveAspectRatio="xMidYMid meet">
<metadata>
Created by potrace 1.14, written by Peter Selinger 2001-2017
</metadata>
<g transform="translate(0.000000,136.000000) scale(0.100000,-0.100000)"
fill="#000000" stroke="none">
<path d="M138 1340 c-17 -9 -40 -32 -50 -51 -17 -31 -18 -71 -18 -604 0 -629
-2 -612 63 -659 27 -20 39 -21 535 -21 560 0 555 0 593 62 22 35 22 38 22 612
0 521 -1 579 -17 608 -36 71 -13 68 -584 69 -461 1 -516 -1 -544 -16z"/>
</g>
</svg>
