<svg width="98" height="98" viewBox="0 0 98 98" fill="none" xmlns="http://www.w3.org/2000/svg">
<rect width="98" height="98" rx="19" fill="url(#paint0_linear_202_28)"/>
<path d="M16.8438 65V20.1875H42.5V24.2812H22.5938V38.5H39.8125V42.5938H22.5938V65H16.8438ZM50.0312 81V33H53.4688L54.3125 34.7812C58.0625 32.9479 61.4688 32.0312 64.5312 32.0312C67.4688 32.0312 70.0104 32.8854 72.1562 34.5938C74.3021 36.3021 75.8438 38.3958 76.7812 40.875C77.7188 43.3542 78.1875 46 78.1875 48.8125C78.1875 53.7292 76.9479 57.8229 74.4688 61.0938C71.9896 64.3438 68.4896 65.9688 63.9688 65.9688C60.9479 65.9688 58.0729 65.2604 55.3438 63.8438V81H50.0312ZM55.3438 59.75C57.3854 60.8125 59.9583 61.3438 63.0625 61.3438C65.5 61.3438 67.4688 60.6875 68.9688 59.375C70.4896 58.0417 71.5104 56.4583 72.0312 54.625C72.5521 52.7917 72.8125 50.6562 72.8125 48.2188C72.8125 44.7604 71.9792 41.9271 70.3125 39.7188C68.6458 37.5104 66.5729 36.4062 64.0938 36.4062C61.5312 36.4062 58.6146 37.0833 55.3438 38.4375V59.75Z" fill="white"/>
<path d="M16.8438 65H13.8438V68H16.8438V65ZM16.8438 20.1875V17.1875H13.8438V20.1875H16.8438ZM42.5 20.1875H45.5V17.1875H42.5V20.1875ZM42.5 24.2812V27.2812H45.5V24.2812H42.5ZM22.5938 24.2812V21.2812H19.5938V24.2812H22.5938ZM22.5938 38.5H19.5938V41.5H22.5938V38.5ZM39.8125 38.5H42.8125V35.5H39.8125V38.5ZM39.8125 42.5938V45.5938H42.8125V42.5938H39.8125ZM22.5938 42.5938V39.5938H19.5938V42.5938H22.5938ZM22.5938 65V68H25.5938V65H22.5938ZM19.8438 65V20.1875H13.8438V65H19.8438ZM16.8438 23.1875H42.5V17.1875H16.8438V23.1875ZM39.5 20.1875V24.2812H45.5V20.1875H39.5ZM42.5 21.2812H22.5938V27.2812H42.5V21.2812ZM19.5938 24.2812V38.5H25.5938V24.2812H19.5938ZM22.5938 41.5H39.8125V35.5H22.5938V41.5ZM36.8125 38.5V42.5938H42.8125V38.5H36.8125ZM39.8125 39.5938H22.5938V45.5938H39.8125V39.5938ZM19.5938 42.5938V65H25.5938V42.5938H19.5938ZM22.5938 62H16.8438V68H22.5938V62ZM50.0312 81H47.0312V84H50.0312V81ZM50.0312 33V30H47.0312V33H50.0312ZM53.4688 33L56.18 31.7157L55.3672 30H53.4688V33ZM54.3125 34.7812L51.6013 36.0655L52.9015 38.8104L55.6301 37.4764L54.3125 34.7812ZM72.1562 34.5938L70.2877 36.9408L72.1562 34.5938ZM74.4688 61.0938L76.854 62.9133L76.8596 62.9059L74.4688 61.0938ZM55.3438 63.8438L56.7259 61.1811L52.3438 58.9064V63.8438H55.3438ZM55.3438 81V84H58.3438V81H55.3438ZM55.3438 59.75H52.3438V61.5707L53.9588 62.4112L55.3438 59.75ZM68.9688 59.375L70.9443 61.6327L70.9464 61.6308L68.9688 59.375ZM55.3438 38.4375L54.1962 35.6657L52.3438 36.4326V38.4375H55.3438ZM53.0312 81V33H47.0312V81H53.0312ZM50.0312 36H53.4688V30H50.0312V36ZM50.7575 34.2843L51.6013 36.0655L57.0237 33.497L56.18 31.7157L50.7575 34.2843ZM55.6301 37.4764C59.1109 35.7747 62.0601 35.0312 64.5312 35.0312V29.0312C60.8774 29.0312 57.0141 30.1211 52.9949 32.0861L55.6301 37.4764ZM64.5312 35.0312C66.8416 35.0312 68.712 35.6863 70.2877 36.9408L74.0248 32.2467C71.3089 30.0845 68.0959 29.0312 64.5312 29.0312V35.0312ZM70.2877 36.9408C72.0264 38.325 73.2356 39.9803 73.9752 41.9361L79.5873 39.8139C78.4519 36.8114 76.5778 34.2792 74.0248 32.2467L70.2877 36.9408ZM73.9752 41.9361C74.7768 44.0559 75.1875 46.3402 75.1875 48.8125H81.1875C81.1875 45.6598 80.6607 42.6524 79.5873 39.8139L73.9752 41.9361ZM75.1875 48.8125C75.1875 53.2083 74.0882 56.6294 72.0779 59.2816L76.8596 62.9059C79.8077 59.0164 81.1875 54.25 81.1875 48.8125H75.1875ZM72.0835 59.2742C70.2375 61.6942 67.6678 62.9688 63.9688 62.9688V68.9688C69.3113 68.9688 73.7416 66.9933 76.854 62.9133L72.0835 59.2742ZM63.9688 62.9688C61.4379 62.9688 59.036 62.3802 56.7259 61.1811L53.9616 66.5064C57.1098 68.1406 60.4579 68.9688 63.9688 68.9688V62.9688ZM52.3438 63.8438V81H58.3438V63.8438H52.3438ZM55.3438 78H50.0312V84H55.3438V78ZM53.9588 62.4112C56.551 63.7602 59.6367 64.3438 63.0625 64.3438V58.3438C60.2799 58.3438 58.2199 57.8648 56.7287 57.0888L53.9588 62.4112ZM63.0625 64.3438C66.0577 64.3438 68.7824 63.5244 70.9443 61.6327L66.9932 57.1173C66.1551 57.8506 64.9423 58.3438 63.0625 58.3438V64.3438ZM70.9464 61.6308C72.8741 59.9408 74.2284 57.869 74.9171 55.4448L69.1454 53.8052C68.7925 55.0477 68.105 56.1425 66.9911 57.1192L70.9464 61.6308ZM74.9171 55.4448C75.5313 53.2826 75.8125 50.8604 75.8125 48.2188H69.8125C69.8125 50.4521 69.5729 52.3007 69.1454 53.8052L74.9171 55.4448ZM75.8125 48.2188C75.8125 44.2738 74.8559 40.7587 72.7071 37.9115L67.9179 41.526C69.1024 43.0954 69.8125 45.247 69.8125 48.2188H75.8125ZM72.7071 37.9115C70.549 35.052 67.6326 33.4062 64.0938 33.4062V39.4062C65.5132 39.4062 66.7427 39.9688 67.9179 41.526L72.7071 37.9115ZM64.0938 33.4062C61.018 33.4062 57.7013 34.2145 54.1962 35.6657L56.4913 41.2093C59.5279 39.9522 62.0445 39.4062 64.0938 39.4062V33.4062ZM52.3438 38.4375V59.75H58.3438V38.4375H52.3438Z" fill="#FDFDFD"/>
<defs>
<linearGradient id="paint0_linear_202_28" x1="4" y1="-24.5" x2="164.5" y2="190" gradientUnits="userSpaceOnUse">
<stop offset="0.119792"/>
<stop offset="0.609375" stop-color="#5E5E5E"/>
</linearGradient>
</defs>
</svg>
